<?xml version="1.0" standalone="no"?>
<!DOCTYPE svg PUBLIC "-//W3C//DTD SVG 1.1//EN" "http://www.w3.org/Graphics/SVG/1.1/DTD/svg11.dtd" >
<svg xmlns="http://www.w3.org/2000/svg" xmlns:xlink="http://www.w3.org/1999/xlink" version="1.1" viewBox="-10 0 2530 1024">
   <path fill="#866d4b"
d="M702 970q0 12 -5 17.5t-16 5.5q-9 0 -16 -6t-7 -17v-7h-23v9q0 20 13 29.5t33 9.5q10 0 18.5 -2.5t15.5 -7.5q6 -5 9 -12.5t3 -18.5v-78h-25v78v0zM1053 965q0 15 -6 21.5t-19 6.5q-12 0 -18.5 -6.5t-6.5 -21.5v-71h-25v74q0 22 14 34t36 12t36 -12t14 -34v-74h-25v71v0z
M853 890q-25 0 -42 16.5t-17 44.5t16 44t43 16q26 0 42 -16t16 -44t-16.5 -44.5t-41.5 -16.5zM853 993q-14 0 -23 -10t-9 -32q0 -21 9 -31.5t23 -10.5q15 0 24 10t9 32t-9.5 32t-23.5 10zM1839 942l-25 -6q-6 -1 -10.5 -3.5t-4.5 -8.5q2 -8 8 -11.5t15 -3.5q10 0 16.5 4.5
t6.5 14.5h25q0 -10 -3 -16.5t-9 -10.5q-6 -5 -14.5 -8t-19.5 -3q-9 0 -18 2t-15 7q-6 4 -9.5 10.5t-3.5 14.5q0 15 8.5 21.5t21.5 9.5l25 6q9 2 12.5 5.5t3.5 11.5t-6 12.5t-17 4.5q-12 0 -19.5 -5.5t-7.5 -17.5h-25q0 9 3.5 17.5t9.5 13.5q8 5 17 8t20 3t20.5 -2t15.5 -7
t9 -11.5t3 -15.5q0 -19 -8.5 -25.5t-24.5 -10.5v0zM1484 1009h85v-18h-60v-32h58v-19h-58v-27h60v-21h-85v117zM1248 930q0 -17 -10.5 -26.5t-29.5 -9.5h-59v117h25v-46h23l28 46h29l-29 -48q11 -3 17 -12t6 -21v0zM1204 945h-32v-32h32q9 0 14 4.5t5 12.5q0 6 -5 10.5
t-14 4.5zM1676 945l-29 -53h-27l41 73v44h25v-44l42 -73h-25zM1390 976v0l-50 -84h-30v117h23v-83l53 83h27v-117h-23v84zM2405 272q-12 -35 -42 -56.5t-66 -29.5q-55 -8 -89 12.5t-74 46.5q-11 6 -20.5 8.5t-15.5 -0.5q-16 -11 -39 -41t-47 -28q-17 1 -56 28t-54 47v-69
h-59v362h59v-259q0 -19 34 -44.5t51 -26.5q18 -2 35.5 24.5t38.5 31.5q28 9 65.5 -15.5t84.5 -36.5q53 -14 86 6t50 61l14 35q-48 -32 -96 -37q-49 -5 -87 11t-62 49q-24 34 -24 79q0 61 37 93q37 33 90 41t111 -7t98 -49l19 44h63l-105 -280v0zM2405 474q-30 44 -74 63
q-43 19 -82.5 13.5t-67.5 -35.5q-29 -30 -29 -85q0 -73 48.5 -107.5t144.5 7.5q9 5 16.5 11.5t10.5 15.5l33 86q3 8 4 16.5t-4 14.5v0zM961 178q-44 0 -78 14t-58 36v-38h-58v537h58v-213q24 24 58 37t78 13q97 1 146 -59q49 -61 49 -133.5t-49 -133.5q-49 -60 -146 -60v0z
M961 543q-58 0 -102 -35t-44 -138q0 -11 0.5 -21.5t1.5 -20.5v-4q11 -74 51.5 -99.5t90.5 -25.5q58 0 97 50.5t39 122.5t-38 121.5t-96 49.5v0zM1229 15h58v537h-58v-537zM698 190h-71q-20 49 -34.5 79.5t-28.5 54.5l-90 -134h-66q25 41 56 86.5t63 91.5l-145 184h74
q28 -65 49.5 -104t35.5 -59l0.5 -1t1.5 -1l105 165h73l-140 -209l117 -153v0zM1563 178q-100 0 -150 60q-50 61 -50 134t50 134q50 60 150 60t151 -60q50 -61 50 -134t-50 -134q-51 -60 -151 -60zM1563 543q-59 0 -99.5 -50.5t-40.5 -122.5t40.5 -123t99.5 -51q60 0 100 51
t40 123t-40 122.5t-100 50.5zM217 514q-18 2 -37.5 3.5t-39.5 2.5q-20 2 -38.5 2.5t-40.5 2.5v-483q22 0 38 1t35 1q19 1 37.5 1.5t35.5 2.5t34.5 3.5t34.5 4.5q17 4 30 7t30 6v-54h-336v537h349v-63q-17 5 -30 8.5t-31 6.5q-17 3 -34.5 6t-36.5 4v0zM265 232q-6 0 -13 -1.5
t-14 -2.5q-6 -3 -13.5 -6.5t-15.5 -6.5l-16 -6t-15 -6q-7 -2 -15.5 -3t-18.5 -1q-28 0 -48 12.5t-31 37.5h-2v37q0 -11 3 -19t9 -16q7 -8 16 -11.5t20 -3.5q8 0 15.5 1.5t15.5 2.5l16 6t15 5l16 6t16 4q8 3 15.5 3.5t15.5 0.5q10 0 20.5 -2.5t21.5 -7.5q11 -6 22 -16t24 -24
l-6 -6q-8 6 -14.5 11t-13.5 8q-4 3 -10.5 3.5t-14.5 0.5v0z" />
</svg>
