<?xml version="1.0" standalone="no"?>
<!DOCTYPE svg PUBLIC "-//W3C//DTD SVG 1.1//EN" "http://www.w3.org/Graphics/SVG/1.1/DTD/svg11.dtd" >
<svg xmlns="http://www.w3.org/2000/svg" xmlns:xlink="http://www.w3.org/1999/xlink" version="1.1" viewBox="-10 0 1044 1024">
   <path fill="#866d4b"
d="M517 564q-1 7 0 14t3 13q3 6 8 10.5t11 6.5q6 3 13 2.5t12 -3.5q8 -4 13.5 -11.5t6.5 -16.5h-21q-1 4 -3 6.5t-4 3.5q-5 4 -10 1t-8 -11q-2 -7 0 -15t7 -11q5 -4 10.5 -1t7.5 11h22q0 -8 -4 -14.5t-11 -10.5q-9 -7 -20.5 -6.5t-20.5 8.5q-6 4 -9 10t-3 14v0zM483 587
q0 2 -1 3.5t-3 2.5q-3 1 -6 1t-6 -1q-2 -1 -3.5 -2.5t-1.5 -3.5h-23q0 8 5 14t12 7q11 3 21 2.5t19 -5.5q8 -5 10 -13.5t-2 -16.5l-2.5 -2.5l-3.5 -3.5q-1 -1 -3 -2t-4 -1q-5 -2 -9.5 -3t-9.5 -1q-3 -1 -5 -2.5t-3 -3.5t0 -4.5t3 -3.5t4.5 -1h4.5q3 1 4.5 2.5t2.5 3.5h23
q0 -6 -4 -11.5t-10 -7.5q-10 -4 -21 -3.5t-21 4.5q-8 4 -11 12t0 17l2 2l2 2q4 4 9 6t10 3q1 0 2 0.5t2 0.5q2 0 3.5 0.5t3.5 0.5l3 1.5t3 0.5q2 1 3 2.5t1 3.5v0zM553 510q-6 1 -12 2.5t-12 4.5v-56q0 -5 3 -8t8 -3q5 -1 9 2t4 8v50v0zM495 516l-12 -4t-12 -2v-51
q0 -5 3.5 -7.5t8.5 -2.5t8.5 3.5t3.5 8.5v55v0zM616 524l-6 -9q-5 2 -10.5 2.5t-10.5 -2.5v-59q-1 -16 -12.5 -26t-25.5 -9q-8 1 -15 4t-11 9q-9 -11 -24 -13t-26 8l-2 2l-2 2v-9h-34v92q-5 3 -11 2.5t-11 -3.5l-6 10q8 4 16.5 4.5t15.5 -3.5q12 -4 24.5 -4t24.5 4
q5 2 11 3.5t12 0.5q6 0 12.5 -1t11.5 -3q12 -4 24.5 -4t23.5 4q7 3 15 2.5t16 -4.5v0zM952 555q-6 10 -20.5 25.5t-35.5 15.5q-23 1 -52 -13.5t-54 -33.5l155 -41l-151 -40q24 -18 52 -31.5t50 -12.5q21 0 35.5 15.5t20.5 24.5q8 14 17.5 26.5t17.5 19.5q-8 8 -17.5 20.5
t-17.5 24.5v0zM888 394q-21 13 -57.5 14t-67.5 -5l53 -71l-85 10q12 -29 30.5 -58t39.5 -40q18 -10 38.5 -4.5t30.5 11.5q13 7 27.5 13t25.5 9q-4 11 -5.5 26.5t-2.5 30.5q1 11 -4 32t-23 32v0zM779 222q-12 21 -42 40t-60 30l11 -88l-69 52q-5 -31 -3.5 -65.5t13.5 -54.5
q11 -19 31.5 -24t32.5 -5q15 0 30.5 -2t26.5 -5q2 11 8 25.5t14 27.5q5 9 11 29.5t-4 39.5v0zM604 267l-34 26l-12 -44q14 -17 23 -30t16 -25q0 14 1.5 31.5t5.5 41.5v0zM599 128q0 22 -13.5 50t-32.5 52l-41 -155l-41 155q-19 -24 -32.5 -52.5t-13.5 -49.5q1 -22 16 -36.5
t25 -20.5q13 -7 25.5 -16.5t20.5 -17.5q8 8 20.5 17.5t25.5 16.5q9 6 24.5 20.5t16.5 36.5v0zM420 267q4 -24 6 -41.5t1 -31.5q7 12 16 25t23 30l-12 43l-34 -25v0zM405 256l-69 -52l11 88q-30 -11 -60.5 -30t-41.5 -40q-10 -19 -4 -39.5t11 -29.5q8 -13 14 -27.5t8 -25.5
q11 3 26.5 5t30.5 2q12 0 32 5t32 24q12 20 13.5 54.5t-3.5 65.5v0zM223 244q21 11 39.5 40t29.5 58l-84 -10l53 71q-31 5 -67.5 4t-57.5 -14q-18 -11 -23 -31.5t-5 -31.5q0 -15 -2 -30.5t-6 -26.5q12 -3 26 -9t27 -13q10 -6 30.5 -11.5t39.5 4.5v0zM128 424q22 -1 50 12.5
t52 32.5l-151 40l155 40q-24 19 -53.5 33.5t-52.5 14.5q-21 -1 -35.5 -16t-20.5 -25q-8 -13 -17.5 -25.5t-17.5 -19.5q8 -8 17.5 -20.5t17.5 -25.5q6 -10 20 -25.5t36 -15.5v0zM136 626q21 -12 56 -13.5t67 3.5l-51 67l86 -10q-11 30 -30.5 60.5t-40.5 42.5q-19 10 -39.5 4
t-30.5 -11q-13 -7 -27.5 -13.5t-25.5 -8.5q4 -11 5.5 -26.5t2.5 -30.5q0 -11 5 -32t23 -32v0zM245 798q12 -21 42 -40t60 -30l-10 84l68 -51q6 31 4.5 67t-13.5 56q-11 18 -32 23.5t-32 5.5q-15 0 -30.5 2t-26.5 5q-3 -11 -9 -25.5t-13 -27.5q-7 -10 -13 -30t5 -39v0z
M420 750l34 -26l13 46q-15 17 -24 30.5t-16 25.5q0 -14 -1.5 -32.5t-5.5 -43.5v0zM425 892q0 -22 14 -50.5t32 -52.5l41 151l40 -151q19 24 33 52.5t13 50.5q0 22 -15.5 36.5t-25.5 20.5q-13 7 -25.5 16.5t-20.5 17.5q-7 -8 -20 -17.5t-26 -16.5q-9 -6 -24 -20.5t-16 -36.5
v0zM604 750q-4 25 -6 43.5t-1 32.5q-7 -11 -16 -25t-24 -31l13 -46l34 26v0zM619 761l68 51l-10 -84q30 11 60 30t41 40q10 19 4 39t-11 30q-7 13 -13 27.5t-9 25.5q-11 -3 -26.5 -5t-30.5 -2q-11 0 -31.5 -5.5t-32.5 -23.5q-12 -20 -13.5 -56t4.5 -67v0zM771 554
q18 15 32 24.5t26 16.5q-15 -1 -32.5 1t-42.5 6l-27 -36l44 -12v0zM784 477l116 31l-172 45v-8.5v-8.5h3h3q13 0 24.5 -6t19.5 -16l2 -4l-2 -4q-8 -10 -20 -16.5t-24 -6.5q-1 0 -3 0.5t-3 0.5q1 -5 0.5 -10.5t-1.5 -11.5l38 11l19 4v0zM752 418q26 4 44.5 6t33.5 1
q-12 6 -25 15t-30 22l-47 -12l24 -32v0zM727 354l64 -7l-41 54l-11 15l-21 27v1q-2 -2 -4.5 -3t-5.5 -1h-2t-1 1q-5 1 -6 5.5t-1 7.5q0 6 -1.5 12.5t-12.5 11.5q-3 2 -7.5 4t-9.5 4q-3 -18 -10 -35t-17 -31q3 -1 6.5 -1.5t6.5 -0.5q15 -4 25.5 -12t14.5 -20q2 -7 3 -14
t1 -13l12 -2l18 -3v0zM675 310q24 -9 40.5 -16.5t28.5 -15.5q-7 13 -14.5 28.5t-15.5 38.5l-17 2q0 -2 -0.5 -3.5t-0.5 -3.5q0 -3 -0.5 -4.5t-0.5 -2.5t-0.5 -2t-0.5 -2q-1 0 -2 -0.5t-2 -0.5h-2.5t-3.5 -1q-2 0 -5 -0.5t-5 -0.5l1 -16v0zM310 345q-8 -22 -15.5 -38
t-14.5 -29q12 8 28.5 15.5t41.5 16.5l2 16q-3 0 -6 0.5t-5 0.5q-2 1 -4 1h-3t-2 0.5l-1 0.5q-1 1 -1.5 2t-0.5 2v2.5v4.5q0 1 -0.5 3t-0.5 3l-18 -1v0zM233 347l94 12q0 6 0.5 13t3.5 14q3 12 13.5 20t26.5 12q3 0 6 0.5t7 1.5q-11 14 -17.5 31t-10.5 35q-5 -2 -9 -4l-8 -4
q-10 -5 -12 -11.5t-2 -12.5q0 -3 -0.5 -7.5t-6.5 -5.5q-1 -1 -1.5 -1h-1.5q-2 0 -4.5 1t-4.5 3v-1l-21 -27l-6 -7l-46 -62v0zM194 425q15 1 33.5 -1t44.5 -6l24 32l-47 13q-17 -14 -30 -22.5t-25 -15.5v0zM124 508l116 -31l15 -4l42 -11q-2 5 -2 10.5t1 10.5h-3h-3
q-13 0 -24.5 6t-19.5 16l-2 4l2 4q8 11 20 17t24 6h3t3 -1v8.5v9.5l-33 -9l-8 -1l-131 -35v0zM269 602q-25 -4 -42.5 -6t-32.5 -1q12 -7 26 -16.5t32 -24.5l44 12l-27 36v0zM354 510q0 4 0.5 7.5t0.5 7.5q-6 2 -11 4.5l-9 4.5q-13 8 -16 17t-3 15v3.5v2.5h-1q-1 0 -2.5 -1.5
t-3.5 -4.5q-4 -7 -5 -18t4 -20l3 -6l-7 3q-3 1 -7 2t-8 1q-11 0 -20.5 -4.5t-15.5 -12.5q6 -8 15.5 -13t20.5 -5q4 0 8 1t7 2l7 4l-3 -6q-5 -10 -4.5 -21t5.5 -18q1 -3 3 -4t3 -1h1v1.5v3.5q0 6 2.5 15.5t16.5 16.5l9 4.5t11 4.5q0 3 -0.5 6.5t-0.5 7.5v0zM297 661l-65 9
l38 -51l11 -14l23 -30q2 3 4.5 4.5t5.5 1.5h2h2q4 -2 5.5 -6t1.5 -8q0 -6 1.5 -12.5t11.5 -11.5q4 -2 8.5 -4t9.5 -4q2 18 9 35t18 32q-3 1 -6.5 1.5t-6.5 0.5q-16 4 -26 12t-14 20q-2 6 -3 12t-1 11h-10l-19 2v0zM350 694l-2 16q-24 8 -40 15.5t-29 15.5q8 -13 15.5 -29.5
t16.5 -41.5l16 -2v7t1 5q0 2 0.5 3.5t0.5 3.5q0 1 0.5 1.5t0.5 1.5q1 0 2 0.5t2 0.5h2.5t3.5 1q3 1 5.5 1.5t4.5 0.5zM342 684q-1 0 -2 -0.5t-2 -0.5v-2t-1 -2q-1 -7 -1.5 -18t4.5 -24q3 -9 11 -15.5t22 -9.5q4 -1 8 -1.5t9 -0.5q5 6 10.5 11t11.5 11q0 4 -1 8l-2 8
q-3 14 -9 22.5t-16 11.5q-12 4 -23.5 3.5t-18.5 -1.5v0zM639 682q-16 -5 -21.5 -21.5t-5.5 -28.5q6 -6 11.5 -11t10.5 -11q4 0 8 0.5t9 1.5q13 3 21.5 9t11.5 16q4 13 3.5 24t-1.5 18q0 1 -0.5 2t-0.5 2h-2t-2 1q-7 1 -18 1.5t-24 -3.5v0zM744 742q-12 -8 -28.5 -15.5
t-40.5 -16.5l-2 -16q2 -1 4.5 -1h4.5q2 -1 4 -1h3v0q1 0 2 -0.5t2 -0.5q0 -1 0.5 -2t0.5 -2v-3t1 -4q0 -2 0.5 -5t0.5 -6l16 2q9 24 17 41t15 30v0zM619 605q1 0 0.5 0h-0.5v0zM615 610v0v0v0zM612 612l1 1q-1 0 -1 -0.5v-0.5zM417 629v0v0v0zM412 612v0.5v0.5v-1zM409 610
v0v0v0zM400 605h-3.5h-4.5h4.5h3.5zM412 407h-1h0.5h0.5zM409 411v-0.5t-1 -0.5zM390 411q-5 0 -9 -1t-8 -1q-14 -3 -22 -9.5t-11 -15.5q-5 -13 -4.5 -24.5t1.5 -17.5q0 -1 0.5 -2t0.5 -3h2h2q7 -1 18.5 -1.5t24.5 3.5q10 3 16 11t9 22q1 4 1.5 8.5t0.5 8.5q-6 5 -11.5 10.5
t-10.5 11.5zM612 388q0 -4 0.5 -8t1.5 -9q3 -13 9 -21.5t16 -11.5q13 -4 24.5 -3.5t18.5 1.5q1 0 2 0.5t2 0.5v2t1 2q1 7 1.5 18t-4.5 24q-3 9 -11 15.5t-22 9.5q-4 1 -8 1.5t-9 0.5l-10.5 -10.5zM654 496q0 4 0.5 7t0.5 7q0 55 -37.5 95.5t-91.5 45.5v0v1v0v0v-1q-4 1 -7 1
h-7h-7t-7 -1v0v1v0v-1q-54 -5 -91.5 -45.5t-37.5 -95.5q0 -4 0.5 -7t0.5 -7q5 -54 45.5 -91t96.5 -37h7t7 1v0v-1q51 5 87 41t41 87v0zM742 604l2 1l47 63l-65 -8l-18 -2l-11 -1q0 -5 -1 -11t-3 -12q-4 -12 -14.5 -20t-25.5 -12q-3 0 -6.5 -0.5t-6.5 -1.5q10 -14 17 -31.5
t10 -35.5q5 2 9 4l8 4q10 5 12 11.5t2 12.5q0 4 1 8t6 6h1.5h1.5q3 0 6 -1.5t5 -4.5l23 31v0zM712 520l4 6q5 10 4 21t-6 18q-1 3 -3 4t-3 1v0q-1 0 -1 -2v-3q0 -6 -2.5 -15.5t-15.5 -16.5q-5 -2 -10 -4.5t-11 -4.5q1 -4 1 -7.5v-7.5v-7t-1 -8q6 -2 11 -4.5t10 -4.5
q13 -7 15.5 -16t2.5 -16v-3.5t1 -2.5v0q1 0 2.5 1.5t3.5 4.5q4 7 5.5 18t-3.5 21l-4 6l7 -4q4 -1 7.5 -2t8.5 -1q10 0 19.5 4.5t15.5 13.5q-6 7 -15.5 12t-19.5 5q-4 0 -8 -1l-8 -2zM582 702q-2 -4 -6 -5l-8 -2q-5 0 -11.5 -1.5t-11.5 -11.5q-2 -4 -4.5 -8.5t-4.5 -9.5
q18 -2 35 -9t33 -18q0 3 0.5 6.5t1.5 6.5q3 16 11 26t20 14q6 2 12.5 3t13.5 1l11 92l-95 -71l0.5 -0.5l1.5 -1.5q1 -3 1.5 -5.5t-0.5 -5.5v0zM452 708q-1 0 -1 -1v-1q0 -1 2 -1h3q6 0 15.5 -2.5t16.5 -15.5q3 -5 5 -10t5 -11q3 1 6.5 1h7.5h7.5t7.5 -1q2 6 4.5 11t4.5 10
q8 13 17 15.5t15 2.5h3.5t2.5 1v0.5t-1 1.5q-2 3 -9.5 6t-16.5 3q-5 0 -9.5 -1t-7.5 -3l-6 -3l3 6q6 10 2.5 25t-16.5 25q-12 -10 -15.5 -25t2.5 -25l3 -6l-6 3q-4 2 -8.5 3t-9.5 1q-10 0 -17.5 -3t-9.5 -6v0zM538 725q3 1 5 1h4q3 0 6 -0.5t5 -0.5l-9 36l-5 17l-31 118
l-32 -118l-4 -19l-9 -34q2 1 5 1.5t6 0.5q2 0 4.5 -0.5t4.5 -0.5q-2 13 4 27t18 22l4 3l4 -3q10 -8 16 -22t4 -28v0zM444 713l1.5 1.5l0.5 0.5l-95 71l11 -92h-1v0q7 0 13.5 -1t13.5 -3q11 -4 19 -14t12 -26q0 -3 0.5 -6t1.5 -6q15 10 32 17t35 10q-2 5 -4 9l-4 8
q-5 10 -11.5 12t-12.5 2q-3 0 -7.5 1t-5.5 6q-2 2 -1.5 4.5t2.5 5.5v0zM442 318q2 4 6 5.5t8 1.5q5 0 11.5 1.5t11.5 11.5q2 4 4.5 8.5t4.5 9.5q-19 2 -36 9t-32 18q0 -3 -0.5 -6.5t-1.5 -6.5q-3 -16 -11 -26t-20 -13q-7 -2 -13 -3t-11 -1l-12 -97l52 40l2 1l42 32l2 1
q-2 1 -3 2l-2 2q-2 2 -2.5 4.5t0.5 5.5v0zM572 312q1 0 1 1v1q0 1 -2 1h-3q-6 0 -15.5 2.5t-16.5 15.5q-3 5 -5 10t-5 11q-7 -1 -14.5 -1t-14.5 1q-2 -6 -4.5 -11t-4.5 -10q-8 -13 -17 -15.5t-15 -2.5h-3.5t-2.5 -1v-0.5t1 -1.5q2 -3 9.5 -6t16.5 -3q5 0 9.5 1t7.5 3l6 3
l-3 -6q-6 -10 -2.5 -25t16.5 -25q12 10 15.5 25t-2.5 25l-3 6l6 -3q4 -2 8.5 -3t9.5 -1q10 0 17.5 3t9.5 6v0zM486 295q-3 -1 -5 -1h-4q-3 0 -6 0.5t-6 0.5l14 -50v-3l33 -121l47 175q-3 0 -6 -0.5t-6 -0.5h-4.5h-4.5q1 -13 -5 -27t-18 -22l-4 -3l-4 3q-11 7 -17 21t-4 28v0
zM580 307q-1 -1 -2 -2.5t-2 -1.5l1 -1l97 -72l-10 76l-1 8l-2 12q-5 0 -11 1t-13 3q-12 4 -20 14t-11 26q-1 3 -1.5 6t-0.5 6q-15 -10 -32.5 -17t-35.5 -10q2 -5 4.5 -9t4.5 -9q5 -9 11.5 -11t11.5 -2q4 0 8 -1t6 -6q0 -2 -0.5 -5t-1.5 -5v0zM801 776q-22 -12 -41 -42.5
t-30 -60.5l86 11l-51 -67q31 -6 66.5 -4.5t56.5 14.5q18 11 23 31.5t5 31.5q0 15 2 30.5t6 26.5q-12 2 -26 8.5t-27 13.5q-11 5 -31 11t-39 -4v0zM1024 510q-24 -25 -48.5 -60t-51.5 -44l-6 -2t-5 -1q2 -2 4 -4.5t4 -4.5q20 -22 23 -64t12 -76q-34 -9 -72 -27.5t-66 -12.5
q-3 0 -6 1l-6 2q1 -2 1.5 -5t1.5 -6q6 -28 -12 -66.5t-28 -71.5q-33 9 -75.5 12t-64.5 23l-4 4l-4 4q-1 -2 -2 -5l-2 -6q-10 -28 -45 -52t-60 -48q-25 24 -60 48t-44 52q-1 3 -1.5 6t-1.5 5q-2 -2 -4.5 -4t-4.5 -4q-22 -19 -64 -22.5t-76 -12.5q-9 34 -27.5 72t-12.5 66
q0 3 1 6t2 5q-2 -1 -5 -1.5t-6 -1.5q-29 -6 -67 12.5t-72 27.5q9 34 12.5 76t22.5 64q2 2 4 4.5t5 4.5q-3 0 -6 1l-6 2q-28 9 -52.5 44t-48.5 60q24 25 48.5 60t51.5 44q3 1 6 1.5t5 1.5q-2 2 -4 4.5t-4 4.5q-20 21 -23 63.5t-12 76.5q34 9 72 27.5t66 12.5q3 0 6 -1l6 -2
q-1 2 -1.5 5t-1.5 6q-6 28 12 66.5t28 72.5q33 -9 75.5 -12.5t64.5 -22.5l4 -4t4 -5l2 6l2 6q9 27 44 51t60 49q25 -25 59.5 -49t44.5 -51q1 -3 1.5 -6t1.5 -6q2 2 4 4.5t5 4.5q21 19 63.5 22.5t76.5 12.5q9 -34 27 -72t13 -67l-2 -6t-2 -5q3 1 6 1.5t6 1.5q28 6 66.5 -12.5
t71.5 -27.5q-8 -34 -11.5 -76t-22.5 -64l-4.5 -4.5l-4.5 -4.5q3 0 5.5 -1t5.5 -2q29 -9 53.5 -44t49.5 -60v0z" />
</svg>
