<?xml version="1.0" standalone="no"?>
<!DOCTYPE svg PUBLIC "-//W3C//DTD SVG 1.1//EN" "http://www.w3.org/Graphics/SVG/1.1/DTD/svg11.dtd" >
<svg xmlns="http://www.w3.org/2000/svg" xmlns:xlink="http://www.w3.org/1999/xlink" version="1.1" viewBox="-10 0 1044 1024">
   <path fill="#866d4b"
d="M1012 952l-251 -251q47 -58 72 -128t25 -144q0 -89 -34 -167q-33 -78 -91.5 -136t-136.5 -92t-167 -34q-43 0 -85 8.5t-82 25.5q-38 16 -72.5 39t-63.5 53q-30 29 -53 63.5t-39 72.5q-17 40 -25.5 82t-8.5 85q0 89 34 167t92 136.5t136 91.5q78 34 167 34q74 0 144 -25
t128 -72l250 251q6 6 14 9t16 3q9 0 16.5 -3t13.5 -9q13 -13 13 -30.5t-12 -29.5v0zM773 429q0 71 -27 134t-73.5 109.5t-109.5 73.5t-134 27t-134 -27q-62 -27 -109 -73.5t-74 -109.5t-27 -134t27 -134q27 -62 74 -109t109 -74q63 -27 134 -27t134 27t109.5 74t73.5 109
q27 63 27 134v0z" />
</svg>
